<?xml version="1.0"?>
<svg xmlns="http://www.w3.org/2000/svg" xmlns:xlink="http://www.w3.org/1999/xlink" xmlns:svgjs="http://svgjs.com/svgjs" version="1.1" width="512" height="512" x="0" y="0" viewBox="0 0 64 64" style="enable-background:new 0 0 512 512" xml:space="preserve" class=""><g><path xmlns="http://www.w3.org/2000/svg" d="m60 46h-20c-1.105 0-2 .895-2 2v12c0 1.105.895 2 2 2h20c1.105 0 2-.895 2-2v-12c0-1.105-.895-2-2-2z" fill="#f5b953" data-original="#f5b953" style="" class=""/><path xmlns="http://www.w3.org/2000/svg" d="m60 46h-20c-1.105 0-2 .895-2 2v4h24v-4c0-1.105-.895-2-2-2z" fill="#f9d18b" data-original="#f9d18b" style="" class=""/><path xmlns="http://www.w3.org/2000/svg" d="m15 44h3c1.105 0 2 .895 2 2 0 1.105-.895 2-2 2h-3" fill="#efbe9a" data-original="#efbe9a" style="" class=""/><path xmlns="http://www.w3.org/2000/svg" d="m20 62v-4c0-3.314-2.686-6-6-6h-6c-3.314 0-6 2.686-6 6v4" fill="#7c86a1" data-original="#669e4f" style="" class=""/><path xmlns="http://www.w3.org/2000/svg" d="m17 62v-4c0-3.314-2.686-6-6-6h-3c-3.314 0-6 2.686-6 6v4" fill="#8892b0" data-original="#78b75b" style="" class=""/><g xmlns="http://www.w3.org/2000/svg" fill="#db9b7c"><path d="m8 52v1c0 1.657 1.343 3 3 3 1.657 0 3-1.343 3-3v-1" fill="#db9b7c" data-original="#db9b7c" style="" class=""/><path d="m7 44h-3c-1.105 0-2 .895-2 2 0 1.105.895 2 2 2h3" fill="#db9b7c" data-original="#db9b7c" style="" class=""/><path d="m16 40v7c0 2.761-2.239 5-5 5-2.761 0-5-2.239-5-5v-7" fill="#db9b7c" data-original="#db9b7c" style="" class=""/></g><path xmlns="http://www.w3.org/2000/svg" d="m10 51.899c2.282-.463 4-2.48 4-4.899v-7h-8v7c0 2.419 1.718 4.436 4 4.899z" fill="#efbe9a" data-original="#efbe9a" style="" class=""/><path xmlns="http://www.w3.org/2000/svg" d="m14 40c0 2.209-3.791 4-6 4h-4v-4c0-2.209 1.791-4 4-4h6c2.209 0 4 1.791 4 4v4c-2.209 0-4-1.791-4-4z" fill="#a66d43" data-original="#a66d43" style=""/><path xmlns="http://www.w3.org/2000/svg" d="m14 40c0 .383.071.745.171 1.096.528-.774.829-1.657.829-2.596 0-.891-.276-1.731-.755-2.475-.083-.005-.161-.025-.245-.025h-6c-2.209 0-4 1.791-4 4v3.01c1.134.622 2.512.99 4 .99 2.209 0 6-1.791 6-4z" fill="#c18e59" data-original="#c18e59" style=""/><circle xmlns="http://www.w3.org/2000/svg" cx="32" cy="28" fill="#8bd2f5" r="12" data-original="#8bd2f5" style="" class=""/><circle xmlns="http://www.w3.org/2000/svg" cx="10" cy="10" fill="#f5b953" r="8" data-original="#f5b953" style="" class=""/><circle xmlns="http://www.w3.org/2000/svg" cx="10" cy="10" fill="#f9d18b" r="5" data-original="#f9d18b" style="" class=""/><circle xmlns="http://www.w3.org/2000/svg" cx="54" cy="10" fill="#8892b0" r="8" data-original="#78b75b" style="" class=""/><circle xmlns="http://www.w3.org/2000/svg" cx="54" cy="10" fill="#ffffff" r="5" data-original="#ffffff" style=""/><path xmlns="http://www.w3.org/2000/svg" d="m18 45c-1.794 0-3.371-.95-4.253-2.374-1.537 1.498-4.135 2.374-5.747 2.374h-4c-.552 0-1-.447-1-1v-4c0-2.757 2.243-5 5-5h6c2.757 0 5 2.243 5 5v4c0 .553-.448 1-1 1zm-13-2h3c1.974 0 5-1.609 5-3 0-.553.448-1 1-1s1 .447 1 1c0 1.304.836 2.416 2 2.829v-2.829c0-1.654-1.346-3-3-3h-6c-1.654 0-3 1.346-3 3z" fill="#0a192f" data-original="#000000" style="" class=""/><path xmlns="http://www.w3.org/2000/svg" d="m11 53c-3.309 0-6-2.691-6-6v-3h2v3c0 2.206 1.794 4 4 4s4-1.794 4-4v-4h2v4c0 3.309-2.691 6-6 6z" fill="#0a192f" data-original="#000000" style="" class=""/><path xmlns="http://www.w3.org/2000/svg" d="m6 49h-2c-1.654 0-3-1.346-3-3s1.346-3 3-3h1v2h-1c-.551 0-1 .448-1 1s.449 1 1 1h2z" fill="#0a192f" data-original="#000000" style="" class=""/><path xmlns="http://www.w3.org/2000/svg" d="m18 49h-2v-2h2c.551 0 1-.448 1-1s-.449-1-1-1h-1v-2h1c1.654 0 3 1.346 3 3s-1.346 3-3 3z" fill="#0a192f" data-original="#000000" style="" class=""/><path xmlns="http://www.w3.org/2000/svg" d="m20 63h-18c-.552 0-1-.447-1-1v-4c0-3.859 3.14-7 7-7h6c3.86 0 7 3.141 7 7v4c0 .553-.448 1-1 1zm-17-2h16v-3c0-2.757-2.243-5-5-5h-6c-2.757 0-5 2.243-5 5z" fill="#0a192f" data-original="#000000" style="" class=""/><path xmlns="http://www.w3.org/2000/svg" d="m11 57c-2.206 0-4-1.794-4-4v-1h2v1c0 1.103.897 2 2 2s2-.897 2-2v-1h2v1c0 2.206-1.794 4-4 4z" fill="#0a192f" data-original="#000000" style="" class=""/><path xmlns="http://www.w3.org/2000/svg" d="m5 57h2v5h-2z" fill="#0a192f" data-original="#000000" style="" class=""/><path xmlns="http://www.w3.org/2000/svg" d="m15 57h2v5h-2z" fill="#0a192f" data-original="#000000" style="" class=""/><path xmlns="http://www.w3.org/2000/svg" d="m12 13h-5v-2h2.586l-2.293-2.293c-.286-.286-.372-.716-.217-1.09.155-.373.52-.617.924-.617h5v2h-2.586l2.293 2.293c.286.286.372.716.217 1.09-.155.373-.52.617-.924.617z" fill="#0a192f" data-original="#000000" style="" class=""/><path xmlns="http://www.w3.org/2000/svg" d="m9 5h2v3h-2z" fill="#0a192f" data-original="#000000" style="" class=""/><path xmlns="http://www.w3.org/2000/svg" d="m9 12h2v3h-2z" fill="#0a192f" data-original="#000000" style="" class=""/><path xmlns="http://www.w3.org/2000/svg" d="m10 19c-4.962 0-9-4.038-9-9s4.038-9 9-9 9 4.038 9 9-4.038 9-9 9zm0-16c-3.86 0-7 3.14-7 7s3.14 7 7 7 7-3.14 7-7-3.14-7-7-7z" fill="#0a192f" data-original="#000000" style="" class=""/><path xmlns="http://www.w3.org/2000/svg" d="m54 19c-4.962 0-9-4.038-9-9s4.038-9 9-9 9 4.038 9 9-4.038 9-9 9zm0-16c-3.86 0-7 3.14-7 7s3.14 7 7 7 7-3.14 7-7-3.14-7-7-7z" fill="#0a192f" data-original="#000000" style="" class=""/><path xmlns="http://www.w3.org/2000/svg" d="m59.424 46.468-1.769-.936c2.188-4.138 3.345-8.818 3.345-13.532 0-5.172-1.378-10.249-3.985-14.682l1.724-1.014c2.787 4.74 4.261 10.168 4.261 15.696 0 5.039-1.237 10.041-3.576 14.468z" fill="#0a192f" data-original="#000000" style="" class=""/><path xmlns="http://www.w3.org/2000/svg" d="m17.318 6.985-1.014-1.724c4.74-2.787 10.168-4.261 15.696-4.261 5.47 0 10.847 1.444 15.55 4.177l-1.005 1.729c-4.398-2.555-9.428-3.906-14.545-3.906-5.172 0-10.249 1.378-14.682 3.985z" fill="#0a192f" data-original="#000000" style="" class=""/><path xmlns="http://www.w3.org/2000/svg" d="m1.273 36.132c-.181-1.36-.273-2.749-.273-4.132 0-5.469 1.444-10.847 4.176-15.55l1.729 1.005c-2.554 4.399-3.905 9.428-3.905 14.545 0 1.294.086 2.596.255 3.868z" fill="#0a192f" data-original="#000000" style="" class=""/><path xmlns="http://www.w3.org/2000/svg" d="m32 63c-3.171 0-6.299-.478-9.299-1.419l.599-1.908c4.806 1.508 10.055 1.73 14.968.648l.431 1.953c-2.186.482-4.44.726-6.699.726z" fill="#0a192f" data-original="#000000" style="" class=""/><path xmlns="http://www.w3.org/2000/svg" d="m60 63h-20c-1.654 0-3-1.346-3-3v-12c0-1.654 1.346-3 3-3h20c1.654 0 3 1.346 3 3v12c0 1.654-1.346 3-3 3zm-20-16c-.551 0-1 .448-1 1v12c0 .552.449 1 1 1h20c.551 0 1-.448 1-1v-12c0-.552-.449-1-1-1z" fill="#0a192f" data-original="#000000" style="" class=""/><path xmlns="http://www.w3.org/2000/svg" d="m56 46h-2v-3h-8v3h-2v-4c0-.553.448-1 1-1h10c.552 0 1 .447 1 1z" fill="#0a192f" data-original="#000000" style="" class=""/><path xmlns="http://www.w3.org/2000/svg" d="m38 51h24v2h-24z" fill="#0a192f" data-original="#000000" style="" class=""/><path xmlns="http://www.w3.org/2000/svg" d="m41 49h2v6h-2z" fill="#0a192f" data-original="#000000" style="" class=""/><path xmlns="http://www.w3.org/2000/svg" d="m57 49h2v6h-2z" fill="#0a192f" data-original="#000000" style="" class=""/><path xmlns="http://www.w3.org/2000/svg" d="m53 2h2v3h-2z" fill="#0a192f" data-original="#000000" style="" class=""/><path xmlns="http://www.w3.org/2000/svg" d="m53 15h2v3h-2z" fill="#0a192f" data-original="#000000" style="" class=""/><path xmlns="http://www.w3.org/2000/svg" d="m46 9h3v2h-3z" fill="#0a192f" data-original="#000000" style="" class=""/><path xmlns="http://www.w3.org/2000/svg" d="m59 9h3v2h-3z" fill="#0a192f" data-original="#000000" style="" class=""/><path xmlns="http://www.w3.org/2000/svg" d="m52.707 13.707-1.414-1.414 1.707-1.707v-3.586h2v4c0 .265-.105.52-.293.707z" fill="#0a192f" data-original="#000000" style="" class=""/><path xmlns="http://www.w3.org/2000/svg" d="m32 41c-7.168 0-13-5.832-13-13s5.832-13 13-13 13 5.832 13 13-5.832 13-13 13zm0-24c-6.065 0-11 4.935-11 11s4.935 11 11 11 11-4.935 11-11-4.935-11-11-11z" fill="#0a192f" data-original="#000000" style="" class=""/><path xmlns="http://www.w3.org/2000/svg" d="m32 41c-3.42 0-6-5.589-6-13s2.58-13 6-13 6 5.589 6 13-2.58 13-6 13zm0-24c-1.888 0-4 4.704-4 11s2.112 11 4 11 4-4.704 4-11-2.112-11-4-11z" fill="#0a192f" data-original="#000000" style="" class=""/><path xmlns="http://www.w3.org/2000/svg" d="m20 27h24v2h-24z" fill="#0a192f" data-original="#000000" style="" class=""/></g></svg>
